<?xml version="1.0" encoding="UTF-8"?>
<svg width="493px" height="448px" viewBox="0 0 493 448" version="1.1" xmlns="http://www.w3.org/2000/svg" xmlns:xlink="http://www.w3.org/1999/xlink">
    <!-- Generator: Sketch 57.1 (83088) - https://sketch.com -->
    <title>trace</title>
    <desc>Created with Sketch.</desc>
    <g id="Landing-page" stroke="none" stroke-width="1" fill="none" fill-rule="evenodd">
        <g id="26-Landing-page" transform="translate(-646.000000, -315.000000)">
            <g id="main-screen">
                <g id="text" transform="translate(355.000000, 182.000000)">
                    <g id="ill" transform="translate(212.000000, 0.000000)">
                        <g id="trace" transform="translate(80.000000, 138.000000)">
                            <path id="Path-4" d="M189.226525,440.971166 L189.259529,441.970622 C186.593957,442.058645 183.924135,442.115699 181.250061,442.141785 L181.250061,442.141785 L181.240307,441.141833 C183.906634,441.115822 186.568706,441.058934 189.226525,440.971166 L189.226525,440.971166 Z M165.26403,440.929986 C167.931078,441.026346 170.593919,441.0922 173.252555,441.127547 L173.252555,441.127547 L173.239261,442.127459 C170.573012,442.09201 167.902566,442.025968 165.227924,441.929334 L165.227924,441.929334 Z M205.183657,440.069117 L205.263589,441.065918 C202.604081,441.27918 199.940284,441.461216 197.272198,441.612024 L197.272198,441.612024 L197.215765,440.613618 C199.876015,440.463252 202.531979,440.281752 205.183657,440.069117 L205.183657,440.069117 Z M149.311512,439.993883 C151.972742,440.209684 154.629834,440.395488 157.282789,440.551295 L157.282789,440.551295 L157.22416,441.549575 C154.563792,441.393332 151.899301,441.207011 149.230686,440.990611 L149.230686,440.990611 Z M221.065203,438.416765 L221.192217,439.408666 C218.544643,439.747691 215.89276,440.055365 213.236568,440.331687 L213.236568,440.331687 L213.133096,439.337055 C215.781432,439.061549 218.425467,438.754786 221.065203,438.416765 L221.065203,438.416765 Z M133.433059,438.345026 C134.914471,438.537952 136.40421,438.718888 137.902167,438.887763 C139.051925,439.017383 140.200917,439.141452 141.349143,439.259972 L141.349143,439.259972 L141.246468,440.254687 C140.095121,440.135845 138.943012,440.011439 137.79014,439.881468 C136.286479,439.71195 134.791035,439.530322 133.303918,439.336652 L133.303918,439.336652 Z M236.861639,436.011841 L237.035545,436.996604 C234.405039,437.461143 231.770219,437.894326 229.131086,438.296155 L229.131086,438.296155 L228.980563,437.307548 C231.611886,436.906909 234.238911,436.475007 236.861639,436.011841 L236.861639,436.011841 Z M117.677112,435.781641 C120.266875,436.290304 122.886468,436.760037 125.535163,437.190351 L125.535163,437.190351 L125.374802,438.177409 C122.71531,437.745341 120.084925,437.273673 117.484381,436.762893 L117.484381,436.762893 Z M252.539212,432.859324 L252.759406,433.83478 C250.151228,434.423534 247.538749,434.981055 244.921971,435.507343 L244.921971,435.507343 L244.724799,434.526974 C247.333881,434.002234 249.938685,433.44635 252.539212,432.859324 L252.539212,432.859324 Z M102.107239,432.15984 C104.65363,432.848629 107.234562,433.497159 109.849136,434.104791 L109.849136,434.104791 L109.622767,435.078833 C106.996587,434.468504 104.404072,433.817063 101.846126,433.125148 L101.846126,433.125148 Z M268.047549,428.97542 L268.312983,429.939549 C265.734714,430.649369 263.152185,431.328264 260.565395,431.976234 L260.565395,431.976234 L260.322411,431.006204 C262.90169,430.360115 265.476736,429.683188 268.047549,428.97542 L268.047549,428.97542 Z M86.8347962,427.4019 C89.3188606,428.283455 91.8431956,429.123685 94.4066861,429.921744 L94.4066861,429.921744 L94.1094399,430.876545 C91.5334995,430.07461 88.9967615,429.230251 86.5003484,428.344314 L86.5003484,428.344314 Z M283.365752,424.376916 L283.675056,425.327879 C281.130759,426.155419 278.582254,426.952444 276.029543,427.718954 L276.029543,427.718954 L275.741956,426.761199 C278.287396,425.996873 280.828661,425.202112 283.365752,424.376916 L283.365752,424.376916 Z M72.0159211,421.439599 C74.4153553,422.526756 76.8621127,423.57193 79.3548114,424.573978 L79.3548114,424.573978 L78.981827,425.501816 C76.4758041,424.494411 74.0158036,423.443581 71.6032177,422.350464 L71.6032177,422.350464 Z M298.408828,419.109093 L298.760178,420.045337 C296.254124,420.985799 293.743931,421.896266 291.229601,422.776736 L291.229601,422.776736 L290.899099,421.832931 C293.406444,420.954907 295.909687,420.046961 298.408828,419.109093 L298.408828,419.109093 Z M57.7897213,414.189162 C60.074168,415.493922 62.4146093,416.756781 64.8093417,417.976177 L64.8093417,417.976177 L64.3555819,418.867301 C61.946648,417.640674 59.5921365,416.370223 57.2937653,415.05751 L57.2937653,415.05751 Z M313.245674,413.169139 L313.637275,414.089274 C311.173206,415.137961 308.705081,416.157267 306.232901,417.147191 L306.232901,417.147191 L305.86117,416.218851 C308.326688,415.231595 310.788189,414.215024 313.245674,413.169139 L313.245674,413.169139 Z M44.3566518,405.574679 C46.4899766,407.109289 48.6901528,408.603159 50.9550988,410.054122 L50.9550988,410.054122 L50.4156766,410.896157 C48.1356713,409.435547 45.9206433,407.931593 43.772694,406.386463 L43.772694,406.386463 Z M32.0173192,395.567917 C33.9510221,397.340022 35.9650043,399.074333 38.0567827,400.76783 L38.0567827,400.76783 L37.4275502,401.545048 C35.3199704,399.838758 33.2905127,398.09112 31.3416891,396.305157 L31.3416891,396.305157 Z M20.9967473,384.023392 C22.666305,386.038489 24.4329307,388.021484 26.2937823,389.968153 L26.2937823,389.968153 L25.5709216,390.659147 C23.6938084,388.695466 21.9114417,386.694802 20.2267081,384.661389 L20.2267081,384.661389 Z M11.8425767,371.032567 C13.1655861,373.284483 14.6061978,375.514054 16.1614064,377.715456 L16.1614064,377.715456 L15.344662,378.292455 C13.7734228,376.068363 12.3176325,373.8153 10.9803671,371.539119 L10.9803671,371.539119 Z M5.10216394,356.632574 C5.96829222,359.093918 6.97592329,361.548534 8.12235674,363.98866 L8.12235674,363.98866 L7.21727221,364.413892 C6.05664321,361.943551 5.03623702,359.457814 4.15886355,356.964514 L4.15886355,356.964514 Z M1.54288324,341.155647 C1.58705308,341.537679 1.63292404,341.919056 1.68048717,342.299737 C1.95798609,344.520756 2.35589112,346.752208 2.87316394,348.988147 L2.87316394,348.988147 L1.89889577,349.213539 C1.37392679,346.944333 0.969987456,344.679041 0.688202236,342.423716 C0.640259261,342.039994 0.594022459,341.655575 0.549500783,341.270501 L0.549500783,341.270501 Z M-0.292540056,325.234467 L0.707410062,325.244455 C0.680843537,327.904149 0.737836612,330.563753 0.876746002,333.211988 L0.876746002,333.211988 L-0.121881142,333.26437 C-0.261876279,330.595435 -0.319315057,327.915033 -0.292540056,325.234467 L-0.292540056,325.234467 Z M0.892886892,309.22664 L1.88318505,309.365598 C1.51570022,311.9845 1.2343877,314.628223 1.0385305,317.288184 L1.0385305,317.288184 L0.0412303371,317.214751 C0.23869026,314.533023 0.522327886,311.86745 0.892886892,309.22664 L0.892886892,309.22664 Z M4.23209883,293.514797 L5.19253785,293.793288 C4.45834295,296.32533 3.81427408,298.903163 3.260073,301.520079 L3.260073,301.520079 L2.28177047,301.312897 C2.84100788,298.672201 3.49101882,296.070584 4.23209883,293.514797 L4.23209883,293.514797 Z M9.91690887,278.481927 L10.8198027,278.911791 C9.68730803,281.290504 8.64924417,283.733575 7.70554914,286.23567 L7.70554914,286.23567 L6.76988667,285.882774 C7.7233434,283.354797 8.77231812,280.886047 9.91690887,278.481927 L9.91690887,278.481927 Z M18.111872,264.628245 L18.9215978,265.215054 C17.3711311,267.354513 15.9181437,269.573939 14.5626096,271.869095 L14.5626096,271.869095 L13.701569,271.360559 C15.0728686,269.038709 16.5429595,266.793158 18.111872,264.628245 L18.111872,264.628245 Z M28.7902875,252.568819 L29.4699048,253.302386 C27.5198048,255.109068 25.6666822,257.006058 23.9104596,258.990066 L23.9104596,258.990066 L23.1616763,258.327251 C24.939693,256.318622 26.8158894,254.398012 28.7902875,252.568819 L28.7902875,252.568819 Z M41.6201373,242.83848 L42.1446347,243.689892 C39.8651048,245.094157 37.6770596,246.591692 35.5803635,248.180033 L35.5803635,248.180033 L34.9765217,247.382928 C37.0987872,245.775218 39.3133116,244.25956 41.6201373,242.83848 L41.6201373,242.83848 Z M55.9785708,235.697759 L56.3445438,236.628384 C53.838871,237.613752 51.4151665,238.688484 49.0732768,239.850792 L49.0732768,239.850792 L48.6287078,238.955047 C50.9963781,237.779944 53.4463078,236.693584 55.9785708,235.697759 L55.9785708,235.697759 Z M182.968947,233.485748 L182.990385,234.485518 C180.370022,234.541706 177.698162,234.55514 174.974305,234.525303 L174.974305,234.525303 L174.985258,233.525363 C177.698388,233.555082 180.359452,233.541703 182.968947,233.485748 L182.968947,233.485748 Z M159.024286,232.890245 C161.72737,233.07102 164.385372,233.213804 166.998663,233.31899 L166.998663,233.31899 L166.958445,234.318181 C164.336256,234.212637 161.669418,234.069378 158.957558,233.888016 L158.957558,233.888016 Z M198.901167,232.557982 L198.998729,233.553212 C196.393476,233.808605 193.728019,234.015072 191.001663,234.171908 L191.001663,234.171908 L190.944232,233.173559 C193.657285,233.017488 196.309364,232.812057 198.901167,232.557982 L198.901167,232.557982 Z M71.3767805,230.998398 L71.5972741,231.973787 C68.9604794,232.569853 66.3946507,233.247397 63.8996477,234.00515 L63.8996477,234.00515 L63.6090462,233.048306 C66.1273211,232.283485 68.716534,231.599766 71.3767805,230.998398 L71.3767805,230.998398 Z M143.120101,231.444941 C145.808716,231.75034 148.457772,232.021906 151.067552,232.259944 L151.067552,232.259944 L150.976719,233.25581 C148.359545,233.017098 145.703146,232.744779 143.007237,232.438551 L143.007237,232.438551 Z M214.684996,230.271863 L214.877572,231.253145 C212.311911,231.756654 209.674971,232.203811 206.965745,232.593618 L206.965745,232.593618 L206.82333,231.603811 C209.515886,231.216403 212.136103,230.772082 214.684996,230.271863 L214.684996,230.271863 Z M127.27181,229.384173 C128.710728,229.563309 130.1612,229.757424 131.623239,229.966578 C132.821533,230.138001 134.012574,230.303156 135.196382,230.462064 L135.196382,230.462064 L135.06334,231.453175 C133.876666,231.293881 132.682768,231.12833 131.481625,230.956499 C130.025582,230.748204 128.581135,230.554895 127.14827,230.376512 L127.14827,230.376512 Z M87.226398,228.479416 L87.3233752,229.474702 C84.6274575,229.737383 81.9920462,230.072413 79.4170226,230.478891 L79.4170226,230.478891 L79.2610989,229.491122 C81.8558254,229.081533 84.5108917,228.744005 87.226398,228.479416 L87.226398,228.479416 Z M111.293892,227.98409 C113.916911,228.111458 116.583793,228.294499 119.294621,228.533679 L119.294621,228.533679 L119.206731,229.529809 C116.508927,229.291779 113.855174,229.109639 111.245391,228.982913 L111.245391,228.982913 Z M230.133968,226.283627 L230.445275,227.233936 C227.959926,228.0481 225.389255,228.797277 222.731741,229.480007 L222.731741,229.480007 L222.482915,228.511459 C225.11955,227.834093 227.669383,227.090988 230.133968,226.283627 L230.133968,226.283627 Z M103.264527,227.766895 L103.259695,228.766883 C100.5477,228.753777 97.8872675,228.804371 95.2782998,228.918017 L95.2782998,228.918017 L95.2347816,227.918964 C97.8599693,227.804612 100.53652,227.753712 103.264527,227.766895 L103.264527,227.766895 Z M244.834951,220.212805 L245.290341,221.103097 C242.957681,222.296268 240.523154,223.415875 237.984362,224.459746 L237.984362,224.459746 L237.604084,223.534873 C240.117497,222.501438 242.526963,221.393356 244.834951,220.212805 L244.834951,220.212805 Z M369.170435,220.446147 L369.218272,221.445002 C366.522077,221.574128 363.846959,221.637635 361.192841,221.635672 L361.192841,221.635672 L361.19358,220.635672 C363.83144,220.637623 366.490362,220.574501 369.170435,220.446147 L369.170435,220.446147 Z M345.292414,219.810572 C347.919249,220.085519 350.568201,220.291867 353.23937,220.429447 L353.23937,220.429447 L353.187933,221.428123 C350.499221,221.289639 347.832708,221.081923 345.188315,220.805139 L345.188315,220.805139 Z M385.072938,218.952442 L385.210281,219.942965 C382.534888,220.313927 379.87916,220.623783 377.24303,220.872666 L377.24303,220.872666 L377.149035,219.877093 C379.770617,219.629584 382.411893,219.321414 385.072938,218.952442 L385.072938,218.952442 Z M329.529543,217.281202 C332.117963,217.845814 334.729181,218.339385 337.363306,218.761739 L337.363306,218.761739 L337.204989,219.749127 C334.552524,219.323833 331.923031,218.826808 329.316424,218.258228 L329.316424,218.258228 Z M400.779228,216.118512 L400.995109,217.094932 C398.355994,217.678424 395.735082,218.20548 393.132312,218.676216 L393.132312,218.676216 L392.954339,217.69218 C395.544363,217.223749 398.152638,216.699235 400.779228,216.118512 L400.779228,216.118512 Z M258.237171,211.69097 L258.854869,212.477385 C256.78249,214.105158 254.591327,215.653869 252.277443,217.120348 L252.277443,217.120348 L251.742125,216.275698 C254.027608,214.827218 256.191274,213.297942 258.237171,211.69097 L258.237171,211.69097 Z M314.146614,212.999864 C316.661934,213.856583 319.200156,214.641559 321.761391,215.354617 L321.761391,215.354617 L321.493187,216.317979 C318.913718,215.599844 316.35742,214.809278 313.824202,213.946463 L313.824202,213.946463 Z M416.235706,212.114243 L416.519613,213.073094 C413.929083,213.840126 411.355294,214.55537 408.798192,215.218929 L408.798192,215.218929 L408.547014,214.250988 C411.093099,213.590288 413.655978,212.878076 416.235706,212.114243 L416.235706,212.114243 Z M299.410177,207.038424 C301.822295,208.173922 304.256849,209.238749 306.713949,210.23274 L306.713949,210.23274 L306.338934,211.159759 C303.864628,210.158807 301.413102,209.086557 298.984263,207.943188 L298.984263,207.943188 Z M430.998262,206.310848 L431.453306,207.201317 C429.061127,208.423757 426.614251,209.526851 424.114079,210.507789 L424.114079,210.507789 L423.748837,209.576876 C426.218311,208.607983 428.635224,207.518397 430.998262,206.310848 L430.998262,206.310848 Z M269.595691,200.571212 L270.37062,201.20326 C268.691208,203.26232 266.881751,205.24556 264.93549,207.149033 L264.93549,207.149033 L264.236286,206.434111 C266.155594,204.556998 267.939794,202.601441 269.595691,200.571212 L269.595691,200.571212 Z M285.368021,199.477547 C287.652225,200.867674 289.957897,202.189831 292.285137,203.443865 L292.285137,203.443865 L291.810772,204.324193 C289.468082,203.061834 287.147237,201.730976 284.848144,200.331788 L284.848144,200.331788 Z M444.395977,197.766334 L445.009277,198.556184 C442.876231,200.212447 440.68472,201.760377 438.436371,203.196504 L438.436371,203.196504 L437.898066,202.353754 C440.12044,200.934218 442.286942,199.403953 444.395977,197.766334 L444.395977,197.766334 Z M275.972,193.29 L276.035117,193.335434 C276.901338,193.949496 277.770791,194.553289 278.643482,195.146804 L278.643482,195.146804 L278.081117,195.973693 C277.2031,195.376555 276.328366,194.769096 275.45691,194.151325 L275.443,194.141 L275.719484,193.704188 L275.719484,193.704188 L275.972,193.29 Z M274.628,193.557 L275.443,194.141 L275.101716,194.682247 L274.260543,194.141481 L274.260543,194.141481 L274.628,193.557 Z M272.158919,190.502878 C273.015457,191.147724 273.875218,191.782315 274.738208,192.406642 L275.156,192.705 L274.869844,193.176825 L274.869844,193.176825 L274.628,193.557 L274.152183,193.216935 C273.718093,192.902895 273.284822,192.586278 272.852369,192.267085 L271.557462,191.301783 Z M456.105552,186.942341 L456.842258,187.618555 C455.01213,189.6124 453.121716,191.514268 451.172782,193.32005 L451.172782,193.32005 L450.493128,192.586518 C452.42211,190.799222 454.29351,188.916483 456.105552,186.942341 L456.105552,186.942341 Z M278.182023,187.232408 L279.07715,187.678219 C278.224868,189.389485 277.307497,191.069697 276.320254,192.718603 L275.972,193.29 L275.156,192.705 L275.462404,192.204701 C276.241424,190.903561 276.976406,189.582533 277.669768,188.241723 L278.182023,187.232408 Z M259.844134,180.326491 C261.837299,182.125358 263.849107,183.864653 265.879642,185.544253 L265.879642,185.544253 L265.242263,186.314805 C263.200596,184.625995 261.177915,182.8773 259.174138,181.068856 L259.174138,181.068856 Z M465.980483,174.430713 L466.807356,174.993101 C465.286419,177.22932 463.704267,179.39187 462.062734,181.475965 L462.062734,181.475965 L461.277154,180.857204 C462.904147,178.79157 464.472541,176.647825 465.980483,174.430713 L465.980483,174.430713 Z M283.820762,172.382497 L284.783372,172.653386 C284.702042,172.942396 284.619192,173.232517 284.534822,173.523747 C283.866994,175.828952 283.13002,178.068165 282.290376,180.295039 L282.290376,180.295039 L281.354679,179.942234 C282.184659,177.74099 282.913499,175.526492 283.574317,173.245484 C283.657977,172.956705 283.740125,172.669042 283.820762,172.382497 L283.820762,172.382497 Z M249.129963,168.58843 C250.586483,170.628387 252.260728,172.678437 254.155288,174.733885 L254.155288,174.733885 L253.419989,175.411629 C251.497798,173.326203 249.797282,171.243984 248.316118,169.169512 L248.316118,169.169512 Z M474.078826,160.695515 L474.969961,161.149254 C473.745386,163.554297 472.458492,165.904142 471.111109,168.1932 L471.111109,168.1932 L470.249319,167.685935 C471.586302,165.414545 472.863419,163.082552 474.078826,160.695515 L474.078826,160.695515 Z M286.849977,156.717787 L287.845918,156.8078 C287.61729,159.337434 287.23014,161.993796 286.681015,164.775056 L286.681015,164.775056 L285.699954,164.581358 C286.242447,161.833689 286.624563,159.211865 286.849977,156.717787 L286.849977,156.717787 Z M242.435298,154.354533 C242.96839,156.783318 243.839475,159.266102 245.057302,161.787674 L245.057302,161.787674 L244.156823,162.222573 C242.905677,159.632013 242.008704,157.07544 241.458549,154.568919 L241.458549,154.568919 Z M480.477443,146.125797 L481.413891,146.476603 C480.470946,148.993715 479.463936,151.474209 478.394598,153.911551 L478.394598,153.911551 L477.478856,153.509786 C478.540786,151.089328 479.540897,148.625826 480.477443,146.125797 L480.477443,146.125797 Z M286.748531,140.668344 C287.423133,143.102001 287.849354,145.773107 288.015347,148.674398 L288.015347,148.674398 L287.01698,148.731518 C286.854951,145.899509 286.439943,143.298678 285.784869,140.935468 L285.784869,140.935468 Z M243.039274,138.547833 L243.94374,138.974378 C242.835522,141.324295 242.141714,143.857612 241.899157,146.526108 L241.899157,146.526108 L240.903263,146.435585 C241.156459,143.650031 241.881399,141.003044 243.039274,138.547833 L243.039274,138.547833 Z M485.274671,130.911596 L486.242785,131.162106 C485.572109,133.753978 484.83432,136.328656 484.030945,138.878427 L484.030945,138.878427 L483.077167,138.577914 C483.875316,136.044728 484.608328,133.486724 485.274671,130.911596 L485.274671,130.911596 Z M277.748405,127.447741 C279.989019,128.936661 281.926093,130.895161 283.49578,133.298671 L283.49578,133.298671 L282.658517,133.845472 C281.16276,131.555162 279.322094,129.694138 277.194946,128.280618 L277.194946,128.280618 Z M254.249587,127.072798 L254.712802,127.959044 C252.369198,129.183979 250.229778,130.758778 248.400549,132.617564 L248.400549,132.617564 L247.687799,131.916146 C249.590792,129.982404 251.814561,128.345517 254.249587,127.072798 L254.249587,127.072798 Z M262.0196,124.43457 C264.784714,123.959858 267.555467,123.955406 270.19281,124.434849 L270.19281,124.434849 L270.013952,125.418724 C267.493882,124.9606 264.840777,124.964863 262.188804,125.420151 L262.188804,125.420151 Z M488.467413,115.265853 L489.456337,115.414278 C489.061233,118.046766 488.594474,120.683908 488.057199,123.316605 L488.057199,123.316605 L487.077394,123.116648 C487.611183,120.501035 488.074901,117.881075 488.467413,115.265853 L488.467413,115.265853 Z M489.969905,99.4093138 L490.969186,99.4472483 C490.868866,102.089888 490.690083,104.763763 490.433315,107.45814 L490.433315,107.45814 L489.437825,107.363272 C489.692797,104.687739 489.870311,102.032847 489.969905,99.4093138 L489.969905,99.4093138 Z M490.564078,83.3727996 C490.807872,85.9826351 490.962999,88.659464 491.028852,91.3906533 L491.028852,91.3906533 L490.029143,91.4147577 C489.963839,88.7063356 489.810043,86.052479 489.568412,83.4658082 L489.568412,83.4658082 Z M487.75463,67.5442434 C488.443847,70.0452075 489.028054,72.6672067 489.504853,75.3953117 L489.504853,75.3953117 L488.519784,75.567475 C488.048393,72.8703094 487.471133,70.2794886 486.790567,67.8099205 L486.790567,67.8099205 Z M482.795161,52.3502159 C483.699149,54.797418 484.575435,57.3227917 485.42403,59.9263416 L485.42403,59.9263416 L484.473258,60.2362339 C483.628621,57.6448257 482.756569,55.1316552 481.857115,52.6967269 L481.857115,52.6967269 Z M476.526905,37.5399892 C477.664064,39.8810793 478.767012,42.3184804 479.835771,44.8521947 L479.835771,44.8521947 L478.914387,45.2408484 C477.852403,42.7231953 476.756735,40.3018822 475.627406,37.9769111 L475.627406,37.9769111 Z M468.575022,23.5622309 C470.022727,25.7219694 471.427029,28.0035139 472.78797,30.4068489 L472.78797,30.4068489 L471.9178,30.8996014 C470.569042,28.5177808 469.177886,26.2575946 467.744373,24.1190271 L467.744373,24.1190271 Z M458.413476,11.100501 C460.267077,12.9387579 462.064991,14.932951 463.807259,17.0829979 L463.807259,17.0829979 L463.030324,17.712579 C461.310514,15.5902463 459.53683,13.6229277 457.709314,11.8105407 L457.709314,11.8105407 Z M437.787586,-2.03040684 C438.908949,-4.24832684 441.615972,-5.13726214 443.833892,-4.01589941 C445.908022,-2.96723575 446.819901,-0.531846632 446.01232,1.59343507 C448.182368,2.82155277 450.292721,4.22110658 452.342923,5.78950437 L452.342923,5.78950437 L451.735328,6.58375076 C449.592603,4.94457346 447.384212,3.49392699 445.110066,2.23163619 L445.555816,2.4847263 C444.314116,4.36497281 441.832707,5.05723112 439.773079,4.01589941 C437.555159,2.89453668 436.666223,0.187513162 437.787586,-2.03040684 Z" fill="#7f91d5" fill-rule="nonzero"/>
                            <g id="Group-5" transform="translate(308.923077, 371.692308)">
                                <circle id="Oval" stroke="#7f91d5" cx="26.9230769" cy="26.9230769" r="26.4230769"/>
                                <path d="M41.2830296,25.7173588 C42.3140807,25.2732534 42.3139061,23.8263358 41.2827478,23.3819829 L19.0682972,13.8855056 C18.2280934,13.5173292 17.2989013,14.1391384 17.29901,15.0402888 L17.2869865,20.8914193 C17.2869865,21.5260323 17.7581273,22.071856 18.3946209,22.148086 L36.381959,24.5490825 L18.3951983,26.9330681 C17.7587247,27.0218376 17.2877921,27.5675482 17.2878687,28.2021612 L17.3013045,34.0532947 C17.3014132,34.9544452 18.2307554,35.5764775 19.0708704,35.2085028 L41.2830296,25.7173588 Z" id="🔹Icon-Color" fill="#7f91d5" transform="translate(29.671602, 24.546943) rotate(-32.000000) translate(-29.671602, -24.546943) "/>
                            </g>
                        </g>
                    </g>
                </g>
            </g>
        </g>
    </g>
</svg>